<?xml version="1.0" encoding="iso-8859-1"?>
<!-- Modified to use a purple color scheme -->
<svg height="800px" width="800px" version="1.1" id="Layer_1" xmlns="http://www.w3.org/2000/svg" xmlns:xlink="http://www.w3.org/1999/xlink" viewBox="0 0 512 512" xml:space="preserve">
    <circle style="fill:rgba(128, 0, 128, 0.5);" cx="256" cy="256" r="256"/>
    <path style="fill:rgba(75, 0, 130, 0.5);" d="M510.846,281.056c-11.539,120.006-105.993,215.614-225.175,229.296l-108.63-108.632l-6.429-27.694 l-21.594-19.451l5.275-10.385l-15.496-13.517l5.275-5.11l-24.891-20.77L355.235,125.28l155.776,155.776L510.846,281.056 L510.846,281.056z"/>
    <path style="fill:rgba(106, 90, 205, 0.5);" d="M346.663,421.008l-6.099-83.081c0,0,61.487-59.179,54.563-135.171 c-6.923-75.827-83.41-123.632-161.051-102.861s-90.499,82.916-90.828,93.136c-0.329,10.221,9.232,36.265,2.308,54.069 c-6.923,17.804-31.65,45.661-29.341,54.069c2.308,8.407,23.572,9.726,23.572,9.726s0.165,8.078-2.637,9.726 c-2.803,1.649-1.154,8.407,3.461,12.198c4.615,3.792,12.364,6.264,12.364,6.264s-8.901,1.978-7.747,8.407 c1.154,6.264,4.286,9.561,10.879,9.726c6.594,0.329,8.407-2.803,9.561,0.66c1.154,3.461,1.814,3.792,1.814,3.792 s-6.594,17.144-0.824,29.836c5.769,12.693,14.671,12.693,25.056,10.055s30.496-8.407,30.496-8.407l5.44,28.023h118.851 L346.663,421.008z"/>
    <path style="fill:rgba(138, 43, 226, 0.5);" d="M346.663,421.008l-6.099-83.081c0,0,61.487-59.179,54.563-135.171 c-5.769-63.134-59.673-106.818-122.478-107.807v326.058h73.849h0.164V421.008z"/>
</svg>
